<svg width="15" height="23" viewBox="0 0 15 23" fill="none" xmlns="http://www.w3.org/2000/svg">
<path fill-rule="evenodd" clip-rule="evenodd" d="M1.78369 5.62787C1.00498 7.55059 1.14323 9.77552 2.19165 11.379C2.38618 11.6765 2.36027 12.0812 2.09141 12.3137V12.3137C1.82188 12.5469 1.41116 12.5185 1.20795 12.2257C-0.194091 10.2058 -0.342234 7.44514 0.590232 5.14277C1.61821 2.60457 3.98327 0.556885 7.51604 0.556885C11.0763 0.556885 13.3977 2.78409 14.3492 5.38728C15.2067 7.73328 14.9943 10.5241 13.4528 12.3296C13.2214 12.6007 12.8094 12.5782 12.5705 12.3136V12.3136C12.3322 12.0498 12.3573 11.645 12.5758 11.3645C13.6453 9.99182 13.8658 7.81738 13.1398 5.83093C12.3405 3.64398 10.4439 1.84716 7.51604 1.84716C4.56074 1.84716 2.63531 3.52513 1.78369 5.62787ZM4.8606 9.77761C4.77556 10.3114 4.73664 10.8967 4.73123 11.4344C4.73004 11.5529 4.63474 11.6496 4.51619 11.6504V11.6504C3.92344 11.6543 3.43523 11.1762 3.47616 10.5849C3.49956 10.247 3.53612 9.90454 3.58875 9.57425C3.69572 8.90285 3.88118 8.19809 4.21818 7.69722C4.39181 7.43915 4.63575 7.1903 4.97367 7.06049C5.32681 6.92484 5.69776 6.9516 6.04923 7.09638C6.52261 7.29139 7.0002 7.71561 7.49851 8.347C7.66215 8.13821 7.8395 7.93962 8.02595 7.76355C8.42044 7.39101 8.97539 7.00594 9.60201 7.02466C10.3317 7.04646 10.8265 7.58153 11.1108 8.32193C11.3205 8.86806 11.4566 9.61032 11.5123 10.5803C11.5463 11.1721 11.0604 11.6532 10.4676 11.6532V11.6532C10.3491 11.6532 10.2531 11.5567 10.2518 11.4382C10.238 10.1028 10.0949 9.26985 9.90874 8.78516C9.81237 8.53417 9.71852 8.41415 9.66015 8.36134C9.61279 8.31848 9.58562 8.31501 9.56361 8.31436C9.47045 8.31157 9.24289 8.3875 8.90939 8.70244C8.60187 8.99284 8.30256 9.39519 8.0759 9.79468V9.79468C7.83886 10.2125 7.2442 10.2329 6.97921 9.83222V9.83222C6.29192 8.79305 5.81966 8.39691 5.55942 8.28971C5.50465 8.26714 5.4718 8.26299 5.45737 8.26238C5.44467 8.26184 5.43913 8.26357 5.4348 8.26523C5.42389 8.26942 5.36832 8.29629 5.28618 8.41838C5.11162 8.67782 4.96041 9.15118 4.8606 9.77761ZM4.08688 15.6534C4.08688 15.2971 4.37571 15.0082 4.73201 15.0082H9.962C10.3183 15.0082 10.6071 15.2971 10.6071 15.6534V15.6534C10.6071 16.0097 10.3183 16.2985 9.962 16.2985H4.73201C4.37571 16.2985 4.08688 16.0097 4.08688 15.6534V15.6534ZM5.48752 18.1533V18.1533C5.1941 18.1533 4.95624 17.9154 4.95624 17.622V16.863H9.80217V17.6059C9.80217 17.9082 9.55709 18.1533 9.25478 18.1533V18.1533V18.1533C9.25478 18.8303 8.706 19.379 8.02903 19.379H6.71328C6.03631 19.379 5.48752 18.8303 5.48752 18.1533V18.1533Z" fill="#F5B700"/>
<path fill-rule="evenodd" clip-rule="evenodd" d="M4.84361 9.77761C4.75857 10.3114 4.71965 10.8967 4.71424 11.4344C4.71305 11.5529 4.61775 11.6496 4.4992 11.6504V11.6504C3.90645 11.6543 3.41824 11.1762 3.45917 10.5849C3.48257 10.247 3.51913 9.90454 3.57176 9.57425C3.67873 8.90285 3.86419 8.19809 4.20119 7.69722C4.37482 7.43915 4.61876 7.1903 4.95668 7.06049C5.30982 6.92484 5.68077 6.9516 6.03224 7.09638C6.50562 7.29139 6.98321 7.71561 7.48152 8.347C7.64516 8.13821 7.82251 7.93962 8.00896 7.76355C8.40345 7.39101 8.9584 7.00594 9.58502 7.02466C10.3147 7.04646 10.8095 7.58153 11.0938 8.32193C11.3035 8.86806 11.4396 9.61032 11.4953 10.5803C11.5293 11.1721 11.0434 11.6532 10.4506 11.6532V11.6532C10.3321 11.6532 10.2361 11.5567 10.2349 11.4382C10.221 10.1028 10.0779 9.26985 9.89175 8.78516C9.79538 8.53417 9.70153 8.41415 9.64316 8.36134C9.5958 8.31848 9.56863 8.31501 9.54662 8.31436C9.45346 8.31157 9.2259 8.3875 8.8924 8.70244C8.58488 8.99284 8.28557 9.39519 8.05891 9.79468V9.79468C7.82187 10.2125 7.22721 10.2329 6.96222 9.83222V9.83222C6.27493 8.79305 5.80267 8.39691 5.54243 8.28971C5.48766 8.26714 5.45481 8.26299 5.44038 8.26238C5.42768 8.26184 5.42214 8.26357 5.41781 8.26523C5.4069 8.26942 5.35133 8.29629 5.26919 8.41838C5.09463 8.67782 4.94342 9.15118 4.84361 9.77761Z" fill="#F5B700"/>
</svg>
