<svg width="1440" height="352" viewBox="0 0 1440 352" fill="none" xmlns="http://www.w3.org/2000/svg">
<path d="M0 45.529L80 34.1209C160 23.1393 290.625 0.00323834 480 0.00323482C640 -0.316619 800 23.1393 960 45.529C1120 67.9188 1280 91.3747 1360 102.356L1440 113.764V353.441H1371C1291 353.441 1129.38 353.441 969.375 353.441C809.375 353.441 623.875 356 463.875 356C303.875 356 173.75 356 93.75 356C13.75 356 0 356 0 356V45.529Z" fill="#F6F6F6"/>
<path d="M0 45.529L80 34.1209C160 23.1393 290.625 0.00323834 480 0.00323482C640 -0.316619 800 23.1393 960 45.529C1120 67.9188 1280 91.3747 1360 102.356L1440 113.764V353.441H1371C1291 353.441 1129.38 353.441 969.375 353.441C809.375 353.441 623.875 356 463.875 356C303.875 356 173.75 356 93.75 356C13.75 356 0 356 0 356V45.529Z" fill="#F6F6F6"/>
</svg>
