<svg width="91" height="23" viewBox="0 0 91 23" fill="none" xmlns="http://www.w3.org/2000/svg">
<path fill-rule="evenodd" clip-rule="evenodd" d="M1.78369 5.62787C1.00498 7.55059 1.14323 9.77552 2.19165 11.379C2.38618 11.6765 2.36027 12.0812 2.09141 12.3137V12.3137C1.82188 12.5469 1.41116 12.5185 1.20795 12.2257C-0.194091 10.2058 -0.342234 7.44514 0.590232 5.14277C1.61821 2.60457 3.98327 0.556885 7.51604 0.556885C11.0763 0.556885 13.3977 2.78409 14.3492 5.38728C15.2067 7.73328 14.9943 10.5241 13.4528 12.3296C13.2214 12.6007 12.8094 12.5782 12.5705 12.3136V12.3136C12.3322 12.0498 12.3573 11.645 12.5758 11.3645C13.6453 9.99182 13.8658 7.81738 13.1398 5.83093C12.3405 3.64398 10.4439 1.84716 7.51604 1.84716C4.56074 1.84716 2.63531 3.52513 1.78369 5.62787ZM4.8606 9.77761C4.77556 10.3114 4.73664 10.8967 4.73123 11.4344C4.73004 11.5529 4.63474 11.6496 4.51619 11.6504V11.6504C3.92344 11.6543 3.43523 11.1762 3.47616 10.5849C3.49956 10.247 3.53612 9.90454 3.58875 9.57425C3.69572 8.90285 3.88118 8.19809 4.21818 7.69722C4.39181 7.43915 4.63575 7.1903 4.97367 7.06049C5.32681 6.92484 5.69776 6.9516 6.04923 7.09638C6.52261 7.29139 7.0002 7.71561 7.49851 8.347C7.66215 8.13821 7.8395 7.93962 8.02595 7.76355C8.42044 7.39101 8.97539 7.00594 9.60201 7.02466C10.3317 7.04646 10.8265 7.58153 11.1108 8.32193C11.3205 8.86806 11.4566 9.61032 11.5123 10.5803C11.5463 11.1721 11.0604 11.6532 10.4676 11.6532V11.6532C10.3491 11.6532 10.2531 11.5567 10.2518 11.4382C10.238 10.1028 10.0949 9.26985 9.90874 8.78516C9.81237 8.53417 9.71852 8.41415 9.66015 8.36134C9.61279 8.31848 9.58562 8.31501 9.56361 8.31436C9.47045 8.31157 9.24289 8.3875 8.90939 8.70244C8.60187 8.99284 8.30256 9.39519 8.0759 9.79468V9.79468C7.83886 10.2125 7.2442 10.2329 6.97921 9.83222V9.83222C6.29192 8.79305 5.81966 8.39691 5.55942 8.28971C5.50465 8.26714 5.4718 8.26299 5.45737 8.26238C5.44467 8.26184 5.43913 8.26357 5.4348 8.26523C5.42389 8.26942 5.36832 8.29629 5.28618 8.41838C5.11162 8.67782 4.96041 9.15118 4.8606 9.77761ZM4.08688 15.6534C4.08688 15.2971 4.37571 15.0082 4.73201 15.0082H9.962C10.3183 15.0082 10.6071 15.2971 10.6071 15.6534V15.6534C10.6071 16.0097 10.3183 16.2985 9.962 16.2985H4.73201C4.37571 16.2985 4.08688 16.0097 4.08688 15.6534V15.6534ZM5.48752 18.1533V18.1533C5.1941 18.1533 4.95624 17.9154 4.95624 17.622V16.863H9.80217V17.6059C9.80217 17.9082 9.55709 18.1533 9.25478 18.1533V18.1533V18.1533C9.25478 18.8303 8.706 19.379 8.02903 19.379H6.71328C6.03631 19.379 5.48752 18.8303 5.48752 18.1533V18.1533Z" fill="#F5B700"/>
<path fill-rule="evenodd" clip-rule="evenodd" d="M4.84361 9.77761C4.75857 10.3114 4.71965 10.8967 4.71424 11.4344C4.71305 11.5529 4.61775 11.6496 4.4992 11.6504V11.6504C3.90645 11.6543 3.41824 11.1762 3.45917 10.5849C3.48257 10.247 3.51913 9.90454 3.57176 9.57425C3.67873 8.90285 3.86419 8.19809 4.20119 7.69722C4.37482 7.43915 4.61876 7.1903 4.95668 7.06049C5.30982 6.92484 5.68077 6.9516 6.03224 7.09638C6.50562 7.29139 6.98321 7.71561 7.48152 8.347C7.64516 8.13821 7.82251 7.93962 8.00896 7.76355C8.40345 7.39101 8.9584 7.00594 9.58502 7.02466C10.3147 7.04646 10.8095 7.58153 11.0938 8.32193C11.3035 8.86806 11.4396 9.61032 11.4953 10.5803C11.5293 11.1721 11.0434 11.6532 10.4506 11.6532V11.6532C10.3321 11.6532 10.2361 11.5567 10.2349 11.4382C10.221 10.1028 10.0779 9.26985 9.89175 8.78516C9.79538 8.53417 9.70153 8.41415 9.64316 8.36134C9.5958 8.31848 9.56863 8.31501 9.54662 8.31436C9.45346 8.31157 9.2259 8.3875 8.8924 8.70244C8.58488 8.99284 8.28557 9.39519 8.05891 9.79468V9.79468C7.82187 10.2125 7.22721 10.2329 6.96222 9.83222V9.83222C6.27493 8.79305 5.80267 8.39691 5.54243 8.28971C5.48766 8.26714 5.45481 8.26299 5.44038 8.26238C5.42768 8.26184 5.42214 8.26357 5.41781 8.26523C5.4069 8.26942 5.35133 8.29629 5.26919 8.41838C5.09463 8.67782 4.94342 9.15118 4.84361 9.77761Z" fill="#F5B700"/>
<path d="M40.1691 18.5H37.9691V12.64C37.9691 11.6667 37.8091 10.9533 37.4891 10.5C37.1691 10.0467 36.7025 9.82 36.0891 9.82C35.4758 9.82 34.9025 10.0533 34.3691 10.52C33.8491 10.9733 33.4825 11.5667 33.2691 12.3V18.5H31.0691V12.64C31.0691 11.6667 30.9091 10.9533 30.5891 10.5C30.2691 10.0467 29.8091 9.82 29.2091 9.82C28.5958 9.82 28.0225 10.0467 27.4891 10.5C26.9691 10.9533 26.5958 11.5467 26.3691 12.28V18.5H24.1691V8.04H26.1691V10.14C26.5825 9.40667 27.1225 8.84667 27.7891 8.46C28.4691 8.06 29.2425 7.86 30.1091 7.86C30.9758 7.86 31.6558 8.08667 32.1491 8.54C32.6558 8.99333 32.9691 9.56 33.0891 10.24C33.5425 9.46667 34.0958 8.88 34.7491 8.48C35.4158 8.06667 36.1758 7.86 37.0291 7.86C37.6425 7.86 38.1558 7.97333 38.5691 8.2C38.9825 8.42667 39.3025 8.74 39.5291 9.14C39.7558 9.52667 39.9158 9.98 40.0091 10.5C40.1158 11.0067 40.1691 11.5467 40.1691 12.12V18.5ZM47.0043 18.7C46.1776 18.7 45.4376 18.56 44.7843 18.28C44.1309 17.9867 43.5643 17.5867 43.0843 17.08C42.6176 16.5733 42.2576 16 42.0043 15.36C41.7509 14.7067 41.6243 14.0133 41.6243 13.28C41.6243 12.5467 41.7509 11.8533 42.0043 11.2C42.2576 10.5467 42.6176 9.97333 43.0843 9.48C43.5643 8.97333 44.1309 8.58 44.7843 8.3C45.4509 8.00667 46.1909 7.86 47.0043 7.86C47.8176 7.86 48.5509 8.00667 49.2043 8.3C49.8709 8.58 50.4376 8.97333 50.9043 9.48C51.3843 9.97333 51.7509 10.5467 52.0043 11.2C52.2576 11.8533 52.3843 12.5467 52.3843 13.28C52.3843 14.0133 52.2576 14.7067 52.0043 15.36C51.7509 16 51.3843 16.5733 50.9043 17.08C50.4376 17.5867 49.8709 17.9867 49.2043 18.28C48.5509 18.56 47.8176 18.7 47.0043 18.7ZM43.8843 13.3C43.8843 13.9667 44.0243 14.5667 44.3043 15.1C44.5843 15.6333 44.9576 16.0533 45.4243 16.36C45.8909 16.6667 46.4176 16.82 47.0043 16.82C47.5776 16.82 48.0976 16.6667 48.5643 16.36C49.0443 16.04 49.4243 15.6133 49.7043 15.08C49.9843 14.5333 50.1243 13.9333 50.1243 13.28C50.1243 12.6133 49.9843 12.0133 49.7043 11.48C49.4243 10.9467 49.0443 10.5267 48.5643 10.22C48.0976 9.9 47.5776 9.74 47.0043 9.74C46.4176 9.74 45.8909 9.9 45.4243 10.22C44.9576 10.54 44.5843 10.9667 44.3043 11.5C44.0243 12.02 43.8843 12.62 43.8843 13.3ZM59.5993 17.96C59.4126 18.0533 59.1793 18.1533 58.8993 18.26C58.6193 18.3667 58.2993 18.46 57.9393 18.54C57.5926 18.62 57.2326 18.66 56.8593 18.66C56.4059 18.66 55.9859 18.58 55.5993 18.42C55.2126 18.26 54.8993 18.0067 54.6593 17.66C54.4326 17.3 54.3193 16.84 54.3193 16.28V9.74H52.9393V8.04H54.3193V4.6H56.5193V8.04H58.7993V9.74H56.5193V15.58C56.5459 15.94 56.6593 16.2067 56.8593 16.38C57.0726 16.5533 57.3326 16.64 57.6393 16.64C57.9459 16.64 58.2393 16.5867 58.5193 16.48C58.7993 16.3733 59.0059 16.2867 59.1393 16.22L59.5993 17.96ZM59.963 15.44C59.963 14.7733 60.1497 14.1933 60.523 13.7C60.9097 13.1933 61.4364 12.8067 62.103 12.54C62.7697 12.26 63.543 12.12 64.423 12.12C64.8897 12.12 65.363 12.1533 65.843 12.22C66.3364 12.2867 66.7697 12.3933 67.143 12.54V11.88C67.143 11.1467 66.923 10.5733 66.483 10.16C66.043 9.74667 65.4097 9.54 64.583 9.54C63.9964 9.54 63.443 9.64667 62.923 9.86C62.403 10.06 61.8497 10.3467 61.263 10.72L60.523 9.24C61.2164 8.77333 61.9097 8.42667 62.603 8.2C63.3097 7.97333 64.0497 7.86 64.823 7.86C66.223 7.86 67.323 8.23333 68.123 8.98C68.9364 9.71333 69.343 10.76 69.343 12.12V16.02C69.343 16.2733 69.383 16.4533 69.463 16.56C69.5564 16.6667 69.7097 16.7267 69.923 16.74V18.5C69.723 18.54 69.543 18.5667 69.383 18.58C69.223 18.5933 69.0897 18.6 68.983 18.6C68.5164 18.6 68.163 18.4867 67.923 18.26C67.683 18.0333 67.543 17.7667 67.503 17.46L67.443 16.86C66.9897 17.4467 66.4097 17.9 65.703 18.22C64.9964 18.54 64.283 18.7 63.563 18.7C62.8697 18.7 62.2497 18.56 61.703 18.28C61.1564 17.9867 60.7297 17.5933 60.423 17.1C60.1164 16.6067 59.963 16.0533 59.963 15.44ZM66.623 16.08C66.783 15.9067 66.9097 15.7333 67.003 15.56C67.0964 15.3867 67.143 15.2333 67.143 15.1V13.9C66.7697 13.7533 66.3764 13.6467 65.963 13.58C65.5497 13.5 65.143 13.46 64.743 13.46C63.943 13.46 63.2897 13.62 62.783 13.94C62.2897 14.26 62.043 14.7 62.043 15.26C62.043 15.5667 62.123 15.86 62.283 16.14C62.4564 16.42 62.6964 16.6467 63.003 16.82C63.323 16.9933 63.7164 17.08 64.183 17.08C64.663 17.08 65.123 16.9867 65.563 16.8C66.003 16.6133 66.3564 16.3733 66.623 16.08ZM71.5121 18.5V15.94H73.3321V18.5H71.5121ZM75.4699 18.5V8.04H77.6699V18.5H75.4699ZM75.4699 6.32V3.9H77.6699V6.32H75.4699ZM84.6537 18.7C83.8403 18.7 83.1003 18.56 82.4337 18.28C81.7803 17.9867 81.2137 17.5933 80.7337 17.1C80.2537 16.5933 79.8803 16.02 79.6137 15.38C79.3603 14.7267 79.2337 14.0333 79.2337 13.3C79.2337 12.3133 79.4603 11.4133 79.9137 10.6C80.367 9.77333 81.0003 9.11333 81.8137 8.62C82.627 8.11333 83.5803 7.86 84.6737 7.86C85.767 7.86 86.707 8.11333 87.4937 8.62C88.2937 9.11333 88.9137 9.76667 89.3537 10.58C89.7937 11.3933 90.0137 12.2667 90.0137 13.2C90.0137 13.36 90.007 13.5133 89.9937 13.66C89.9803 13.7933 89.967 13.9067 89.9537 14H81.5737C81.6137 14.6133 81.7803 15.1533 82.0737 15.62C82.3803 16.0733 82.767 16.4333 83.2337 16.7C83.7003 16.9533 84.2003 17.08 84.7337 17.08C85.3203 17.08 85.8737 16.9333 86.3937 16.64C86.927 16.3467 87.287 15.96 87.4737 15.48L89.3537 16.02C89.127 16.5267 88.7803 16.9867 88.3137 17.4C87.8603 17.8 87.3203 18.12 86.6937 18.36C86.067 18.5867 85.387 18.7 84.6537 18.7ZM81.5137 12.54H87.8337C87.7937 11.94 87.6203 11.4133 87.3137 10.96C87.0203 10.4933 86.6403 10.1333 86.1737 9.88C85.7203 9.61333 85.2137 9.48 84.6537 9.48C84.107 9.48 83.6003 9.61333 83.1337 9.88C82.6803 10.1333 82.307 10.4933 82.0137 10.96C81.7203 11.4133 81.5537 11.94 81.5137 12.54Z" fill="#F5B700"/>
</svg>
